<svg width="113" height="57" viewBox="0 0 113 57" fill="none" xmlns="http://www.w3.org/2000/svg">
<path fill-rule="evenodd" clip-rule="evenodd" d="M57.2125 4.13646C57.2125 6.05559 58.7981 7.63395 60.7685 7.63395C62.7389 7.63395 64.3669 6.05559 64.3669 4.13646C64.3669 2.21733 62.7389 0.682556 60.7685 0.682556C58.7981 0.682556 57.2125 2.21733 57.2125 4.13646ZM66.551 4.13646C66.551 6.05559 68.0941 7.63395 70.1069 7.63395C72.0349 7.63395 73.6629 6.05559 73.6629 4.13646C73.6629 2.21733 72.1211 0.682556 70.1069 0.682556C68.0928 0.682556 66.551 2.21733 66.551 4.13646ZM99.8353 41.5033C90.1532 41.5033 83.1699 35.1067 83.1699 25.5969C83.1699 16.0871 90.3668 9.73273 99.6203 9.73273C104.376 9.73273 108.788 11.3111 111.315 13.7414L106.688 18.9863C105.275 17.3657 102.833 16.1716 99.8777 16.1716C94.7361 16.1716 90.9665 20.1803 90.9665 25.5956C90.9665 31.0109 94.2651 35.1054 100.22 35.1054C101.934 35.1054 103.519 34.8491 104.804 34.2944V28.7932H99.0206V22.9077H111.53V38.9C108.574 40.4348 104.504 41.502 99.8353 41.502V41.5033ZM19.5469 40.736L8.28056 26.8332H8.19431V40.736H0.997421V10.5437H8.19431V22.8259H8.32302L19.1621 10.5437H28.3294L15.2625 24.4452L29.1003 40.736H19.5469ZM31.4582 40.736V10.5437H38.8262V34.3816H50.565V40.736H31.4582ZM52.6654 29.3506C52.6654 36.6005 57.6358 41.5469 65.6036 41.5469L65.6023 41.5456C73.5289 41.5456 78.6692 36.5992 78.6692 29.3493V10.5437H71.3436V28.7523C71.3436 31.9936 69.758 34.9786 65.646 34.9786C61.5341 34.9786 59.9485 31.9936 59.9485 28.7523V10.5437H52.6654V29.3506Z" fill="#00406F"/>
<path d="M5.65729 56.2644H4.24021V52.0682H2.33616V56.2644H0.931015V46.9105H2.33616V50.7659H4.24021V46.9105H5.65729V56.2644Z" fill="#141414"/>
<path d="M18.1404 46.9635L16.8971 50.8731C16.7445 51.2601 16.5389 51.9113 16.2788 52.8279V56.2646H14.8684V52.8279C14.8047 52.5175 14.7118 52.1886 14.5924 51.8413C14.3801 51.2469 14.266 50.9246 14.25 50.8731L13.0134 46.9635C13.0134 46.9635 13.0094 46.9411 13.0134 46.9094H14.461L15.5835 50.9735L16.7008 46.9094H18.1417V46.9635H18.1404Z" fill="#141414"/>
<path d="M30.1856 54.5013C30.1856 55.0508 30.0211 55.4827 29.6934 55.7957C29.3656 56.1088 28.9225 56.2646 28.3665 56.2646H25.5018V46.9107H28.3665C28.9225 46.9107 29.3656 47.0692 29.6934 47.3862C30.0211 47.7032 30.1856 48.1364 30.1856 48.6859V54.5013ZM28.7752 54.2689V48.8959C28.7752 48.3741 28.5005 48.1126 27.9525 48.1126H26.9083V55.064H27.9167C28.4886 55.064 28.7752 54.7985 28.7752 54.2689Z" fill="#141414"/>
<path d="M42.7231 56.2646H41.2583L39.7085 51.9192V51.0765H41.0898V48.1113H39.3184V56.2646H37.9133V46.9107H41.6417C42.2057 46.9107 42.4883 47.1973 42.4883 47.7719V51.1729C42.4883 51.5678 42.3543 51.8228 42.0862 51.9377C41.9416 51.9971 41.6378 52.0275 41.1734 52.0275L42.7218 56.2659L42.7231 56.2646Z" fill="#141414"/>
<path d="M54.9847 56.2646H53.5914L53.3088 54.4895H51.5494L51.2668 56.2646H49.8802V56.2409L51.6993 46.8988H53.1761L54.9833 56.2659L54.9847 56.2646ZM53.1111 53.2889L52.4265 49.0689L51.7365 53.2889H53.1111Z" fill="#141414"/>
<path d="M67.1135 55.4101C67.1135 55.9793 66.8256 56.2646 66.2484 56.2646H63.2643C62.695 56.2646 62.4111 55.9793 62.4111 55.4101V46.9107H63.8162V55.064H65.707V46.9107H67.1122V55.4101H67.1135Z" fill="#141414"/>
<path d="M78.5762 56.2646H74.8836V46.9107H76.2887V55.0165H78.5762V56.2659V56.2646Z" fill="#141414"/>
<path d="M87.4808 56.2646H86.0757V46.9107H87.4808V56.2646Z" fill="#141414"/>
<path d="M99.8989 55.4101C99.8989 55.9793 99.6123 56.2646 99.0404 56.2646H96.1107C95.5534 56.2646 95.2761 55.9793 95.2761 55.4101V47.7705C95.2761 47.1973 95.5534 46.9094 96.1107 46.9094H99.0404C99.6123 46.9094 99.8989 47.196 99.8989 47.7705V49.9578H98.499V48.1113H96.6799V55.0627H98.499V53.096H99.8989V55.4087V55.4101Z" fill="#141414"/>
<path d="M112.147 55.4101C112.147 55.9793 111.863 56.2646 111.294 56.2646H108.466C107.901 56.2646 107.62 55.9793 107.62 55.4101V53.1805H109.025V55.0878H110.742V53.2532L107.926 50.5997C107.722 50.4042 107.62 50.1559 107.62 49.8521V47.7719C107.62 47.1986 107.902 46.9107 108.466 46.9107H111.294C111.862 46.9107 112.147 47.1933 112.147 47.76V49.8521H110.742V48.0888H109.025V49.7808L111.842 52.4224C112.046 52.6139 112.148 52.8662 112.148 53.1819V55.4114L112.147 55.4101Z" fill="#141414"/>
</svg>
